<svg width="26" height="26" viewBox="0 0 26 26" fill="none" xmlns="http://www.w3.org/2000/svg">
<g clip-path="url(#clip0_6_243)">
<path d="M21.6667 11.9167C21.3793 11.9167 21.1038 12.0308 20.9006 12.234C20.6975 12.4371 20.5833 12.7127 20.5833 13V19.5C20.5833 19.7873 20.4692 20.0629 20.266 20.266C20.0629 20.4692 19.7873 20.5833 19.5 20.5833H6.5C6.21268 20.5833 5.93713 20.4692 5.73397 20.266C5.5308 20.0629 5.41667 19.7873 5.41667 19.5V6.5C5.41667 6.21268 5.5308 5.93713 5.73397 5.73397C5.93713 5.5308 6.21268 5.41667 6.5 5.41667H13C13.2873 5.41667 13.5629 5.30253 13.766 5.09937C13.9692 4.8962 14.0833 4.62065 14.0833 4.33333C14.0833 4.04602 13.9692 3.77047 13.766 3.5673C13.5629 3.36414 13.2873 3.25 13 3.25H6.5C5.63805 3.25 4.8114 3.59241 4.2019 4.2019C3.59241 4.8114 3.25 5.63805 3.25 6.5V19.5C3.25 20.362 3.59241 21.1886 4.2019 21.7981C4.8114 22.4076 5.63805 22.75 6.5 22.75H19.5C20.362 22.75 21.1886 22.4076 21.7981 21.7981C22.4076 21.1886 22.75 20.362 22.75 19.5V13C22.75 12.7127 22.6359 12.4371 22.4327 12.234C22.2295 12.0308 21.954 11.9167 21.6667 11.9167Z" fill="#9E9E9E"/>
<path d="M17.3333 5.41667H19.045L12.2308 12.22C12.1293 12.3207 12.0487 12.4405 11.9937 12.5725C11.9387 12.7046 11.9104 12.8462 11.9104 12.9892C11.9104 13.1322 11.9387 13.2738 11.9937 13.4058C12.0487 13.5378 12.1293 13.6576 12.2308 13.7583C12.3316 13.8599 12.4514 13.9405 12.5834 13.9955C12.7154 14.0505 12.857 14.0788 13 14.0788C13.143 14.0788 13.2846 14.0505 13.4166 13.9955C13.5487 13.9405 13.6685 13.8599 13.7692 13.7583L20.5833 6.955V8.66667C20.5833 8.95398 20.6975 9.22953 20.9006 9.4327C21.1038 9.63586 21.3794 9.75 21.6667 9.75C21.954 9.75 22.2296 9.63586 22.4327 9.4327C22.6359 9.22953 22.75 8.95398 22.75 8.66667V4.33333C22.75 4.04602 22.6359 3.77047 22.4327 3.5673C22.2296 3.36414 21.954 3.25 21.6667 3.25H17.3333C17.046 3.25 16.7705 3.36414 16.5673 3.5673C16.3642 3.77047 16.25 4.04602 16.25 4.33333C16.25 4.62065 16.3642 4.8962 16.5673 5.09937C16.7705 5.30253 17.046 5.41667 17.3333 5.41667Z" fill="#9E9E9E"/>
</g>
<defs>
<clipPath id="clip0_6_243">
<rect width="26" height="26" fill="white"/>
</clipPath>
</defs>
</svg>
