<svg width="26" height="26" viewBox="0 0 26 26" fill="none" xmlns="http://www.w3.org/2000/svg">
<g clip-path="url(#clip0_11782_28)">
<path d="M22.7498 6.5C22.7498 5.63805 22.4074 4.8114 21.7979 4.2019C21.1884 3.59241 20.3618 3.25 19.4998 3.25H6.4998C5.84545 3.25387 5.20752 3.45518 4.66946 3.82758C4.1314 4.19997 3.71829 4.72611 3.48417 5.33716C3.25006 5.9482 3.20584 6.61568 3.35732 7.25227C3.50879 7.88885 3.8489 8.46489 4.33313 8.905V19.5C4.33313 20.362 4.67554 21.1886 5.28504 21.7981C5.89453 22.4076 6.72118 22.75 7.58313 22.75H18.4165C19.2784 22.75 20.1051 22.4076 20.7146 21.7981C21.3241 21.1886 21.6665 20.362 21.6665 19.5V8.905C22.0051 8.60212 22.2765 8.23159 22.4631 7.81735C22.6497 7.4031 22.7474 6.95433 22.7498 6.5ZM6.4998 5.41667H19.4998C19.7871 5.41667 20.0627 5.5308 20.2658 5.73397C20.469 5.93713 20.5831 6.21268 20.5831 6.5C20.5831 6.78732 20.469 7.06287 20.2658 7.26603C20.0627 7.4692 19.7871 7.58333 19.4998 7.58333H6.4998C6.21248 7.58333 5.93693 7.4692 5.73377 7.26603C5.5306 7.06287 5.41647 6.78732 5.41647 6.5C5.41647 6.21268 5.5306 5.93713 5.73377 5.73397C5.93693 5.5308 6.21248 5.41667 6.4998 5.41667ZM19.4998 19.5C19.4998 19.7873 19.3857 20.0629 19.1825 20.266C18.9793 20.4692 18.7038 20.5833 18.4165 20.5833H7.58313C7.29582 20.5833 7.02027 20.4692 6.8171 20.266C6.61394 20.0629 6.4998 19.7873 6.4998 19.5V9.75H19.4998V19.5Z" fill="#9E9E9E"/>
<path d="M15.3075 13H10.6925C10.172 13 9.75 13.422 9.75 13.9425V14.2242C9.75 14.7447 10.172 15.1667 10.6925 15.1667H15.3075C15.828 15.1667 16.25 14.7447 16.25 14.2242V13.9425C16.25 13.422 15.828 13 15.3075 13Z" fill="#9E9E9E"/>
</g>
<defs>
<clipPath id="clip0_11782_28">
<rect width="26" height="26" fill="white"/>
</clipPath>
</defs>
</svg>
